<svg width="256" height="256" viewBox="0 0 256 256" fill="none" xmlns="http://www.w3.org/2000/svg">
<path d="M0 32C0 14.3269 14.3269 0 32 0H224C241.673 0 256 14.3269 256 32V224C256 241.673 241.673 256 224 256H32C14.3269 256 0 241.673 0 224V32Z" fill="#292929"/>
<path d="M88 128C88 105.909 105.909 88 128 88V88C150.091 88 168 105.909 168 128V256H88V128Z" fill="#E70355"/>
<circle cx="164" cy="131.299" r="32" fill="#141414"/>
<circle cx="164" cy="131.299" r="25" fill="white"/>
<circle cx="164" cy="131.299" r="10" fill="#141414"/>
<circle cx="92" cy="131.299" r="32" fill="#141414"/>
<circle cx="92" cy="131.299" r="25" fill="white"/>
<circle cx="92" cy="131.299" r="10" fill="#141414"/>
<path d="M145.579 163.178C147.788 163.178 149.617 164.984 149.209 167.155C148.935 168.619 148.509 170.054 147.936 171.436C146.852 174.054 145.262 176.433 143.259 178.437C141.255 180.441 138.876 182.03 136.258 183.115C133.64 184.199 130.834 184.757 128 184.757C125.166 184.757 122.36 184.199 119.742 183.115C117.124 182.03 114.745 180.441 112.741 178.437C110.737 176.433 109.148 174.054 108.064 171.436C107.491 170.054 107.065 168.619 106.791 167.155C106.383 164.984 108.212 163.178 110.421 163.178L145.579 163.178Z" fill="#7E012E"/>
<path d="M114.186 163.178H141.814V168.949C141.814 171.158 140.023 172.949 137.814 172.949H118.186C115.977 172.949 114.186 171.158 114.186 168.949V163.178Z" fill="white"/>
<rect x="120" y="127.299" width="16" height="8" fill="#141414"/>
<path d="M182.002 0H224.002V76.8193L203.002 55.6004L182.002 76.8193V0Z" fill="#E70355"/>
<rect x="88" y="208.019" width="80" height="2" fill="#CA024A"/>
<rect x="88" y="217.898" width="80" height="2" fill="#CA024A"/>
<rect x="88" y="227.777" width="80" height="2" fill="#CA024A"/>
<rect x="88" y="237.656" width="80" height="2" fill="#CA024A"/>
<rect x="88" y="247.535" width="80" height="2" fill="#CA024A"/>
</svg>
