<svg viewBox="0 0 136 169" fill="none" xmlns="http://www.w3.org/2000/svg">
    <path d="M28 40.5C28 18.4086 45.9086 0.5 68 0.5C90.0914 0.5 108 18.4086 108 40.5V168.5H28V40.5Z" fill="#E70355" />
    <circle cx="32" cy="41.7994" r="28" fill="white" stroke="#141414" stroke-width="8" />
    <circle cx="32" cy="41.7994" r="10" fill="#141414" />
    <circle cx="104" cy="41.7994" r="28" fill="white" stroke="#141414" stroke-width="8" />
    <circle cx="104" cy="41.7994" r="10" fill="#141414" />
    <path
        d="M85.579 75.6782C87.7882 75.6782 89.6165 77.4841 89.2094 79.6554C88.9349 81.119 88.509 82.5538 87.9364 83.9362C86.852 86.5543 85.2625 88.9331 83.2587 90.9369C81.2549 92.9407 78.876 94.5302 76.2579 95.6147C73.6398 96.6991 70.8338 97.2573 68 97.2573C65.1662 97.2573 62.3601 96.6991 59.742 95.6147C57.1239 94.5302 54.7451 92.9407 52.7413 90.9369C50.7375 88.9331 49.148 86.5543 48.0635 83.9362C47.4909 82.5538 47.065 81.119 46.7906 79.6554C46.3834 77.4841 48.2118 75.6782 50.4209 75.6782L85.579 75.6782Z"
        fill="#7E012E"
    />
    <path
        d="M54.1859 75.6782H81.814V81.4489C81.814 83.6581 80.0231 85.4489 77.814 85.4489H58.1859C55.9768 85.4489 54.1859 83.6581 54.1859 81.4489V75.6782Z"
        fill="white"
    />
    <rect x="56" y="37.7994" width="24" height="8" fill="#141414" />
    <rect x="28" y="120.519" width="80" height="2" fill="#CA024A" />
    <rect x="28" y="130.398" width="80" height="2" fill="#CA024A" />
    <rect x="28" y="140.277" width="80" height="2" fill="#CA024A" />
    <rect x="28" y="150.156" width="80" height="2" fill="#CA024A" />
    <rect x="28" y="160.035" width="80" height="2" fill="#CA024A" />
</svg>
